# AST/ASF file generated using VICON BodyLanguage
# -----------------------------------------------
:version 1.10
:name VICON
:units
  mass 1.0
  length 0.45
  angle deg
:documentation
   .ast/.asf automatically generated from VICON data using
   VICON BodyBuilder and BodyLanguage model FoxedUp or BRILLIANT.MOD
:root
   order TX TY TZ RX RY RZ
   axis XYZ
   position 0 0 0  
   orientation 0 0 0 
:bonedata
  begin
     id 1 
     name lhipjoint
     direction 0.440178 -0.822639 0.359871 
     length 2.53113 
     axis 0 0 0  XYZ
  end
  begin
     id 2 
     name lfemur
     direction 0.34202 -0.939693 0  
     length 7.88132  
     axis 0 0 20  XYZ
    dof rx ry rz
    limits (-160.0 20.0)
           (-70.0 70.0)
           (-60.0 70.0)
  end
  begin
     id 3 
     name ltibia
     direction 0.34202 -0.939693 0   
     length 8.43783   
     axis 0 0 20   XYZ
    dof rx
    limits (-10.0 170.0)
  end
  begin
     id 4 
     name lfoot
     direction 0.0886351 -0.243523 0.965837   
     length 2.63414   
     axis -90 7.62852e-016 20   XYZ
    dof rx rz
    limits (-45.0 90.0)
           (-70.0 20.0)
  end
  begin
     id 5 
     name ltoes
     direction 1.53703e-011 -4.21717e-011 1   
     length 1.31427   
     axis -90 7.62852e-016 20   XYZ
    dof rx
    limits (-90.0 20.0)
  end
  begin
     id 6 
     name rhipjoint
     direction -0.399779 -0.839773 0.367367   
     length 2.47948  
     axis 0 0 0  XYZ 
  end
  begin
     id 7 
     name rfemur
     direction -0.34202 -0.939693 0   
     length 7.74806   
     axis 0 0 -20   XYZ
    dof rx ry rz
    limits (-160.0 20.0)
           (-70.0 70.0)
           (-70.0 60.0)
  end
  begin
     id 8 
     name rtibia
     direction -0.34202 -0.939693 0   
     length 8.74432   
     axis 0 0 -20   XYZ
    dof rx
    limits (-10.0 170.0)
 end
 begin
     id 9 
     name rfoot
     direction -0.108514 -0.298139 0.948334   
     length 2.66102  
     axis -90 -7.62852e-016 -20   XYZ
    dof rx rz
    limits (-45.0 90.0)
           (-20.0 70.0)
  end
  begin
     id 10 
     name rtoes
     direction -1.53392e-011 -4.22077e-011 1   
     length 1.31983   
     axis -90 -7.62852e-016 -20   XYZ
    dof rx
    limits (-90.0 20.0)
  end
  begin
     id 11 
     name lowerback
     direction 0.0113257 0.999866 0.0118602   
     length 2.58694   
     axis 0 0 0   XYZ
    dof rx ry rz
    limits (-20.0 45.0)
           (-30.0 30.0)
           (-30.0 30.0)
  end
  begin
     id 12 
     name upperback
     direction -0.0164747 0.995193 -0.0965375   
     length 2.52368   
     axis 0 0 0   XYZ
    dof rx ry rz
    limits (-20.0 45.0)
           (-30.0 30.0)
           (-30.0 30.0)
  end
  begin
     id 13 
     name thorax
     direction -0.0194301 0.99433 -0.104552   
     length 2.56099   
     axis 0 0 0   XYZ
    dof rx ry rz
    limits (-20.0 45.0)
           (-30.0 30.0)
           (-30.0 30.0)
  end
  begin
     id 14 
     name lowerneck
     direction 0.0148543 0.995587 -0.092657   
     length 1.71582   
     axis 0 0 0   XYZ
    dof rx ry rz
    limits (-20.0 45.0)
           (-30.0 30.0)
           (-30.0 30.0)
  end
  begin
     id 15 
     name upperneck
     direction -0.0135467 0.993656 -0.111639   
     length 1.68937   
     axis 0 0 0   XYZ
    dof rx ry rz
    limits (-20.0 45.0)
           (-30.0 30.0)
           (-30.0 30.0)
  end
  begin
     id 16
     name head
     direction -0.00615349 0.999547 -0.029448  
     length 1.7462  
     axis 0 0 0   XYZ
    dof rx ry rz
    limits (-20.0 45.0)
           (-30.0 30.0)
           (-30.0 30.0)
  end
  begin
     id 17 
     name lclavicle
     direction 0.988267 0.149885 0.0293713  
     length 4.47222  
     axis 0 0 0   XYZ
    dof ry rz
    limits (-20.0 10.0)
           (0.0 20.0)
  end
  begin
     id 18 
     name lhumerus
     direction 1 -4.48986e-011 -1.14833e-027   
     length 5.37148   
     axis 180 -30 -90   XYZ
    dof rx ry rz
    limits (-60.0 90.0)
           (-90.0 90.0)
           (-90.0 90.0)
  end
  begin
     id 19
     name lradius
     direction 0.999998 0.00170963 -0.000987055   
     length 3.94212   
     axis 180 -30 -90   XYZ
    dof rx
    limits (-10.0 170.0)
  end
  begin
     id 20
     name lwrist
     direction 0.999998 7.53149e-005 -0.00194706   
     length 1.97106   
     axis 4.65056e-015 90 90   XYZ
    dof ry
    limits (-180.0 0.0)
 end
  begin
     id 21 
     name lhand
     direction 1 -4.48973e-011 -1.31746e-026   
     length 1.17917   
     axis 8.4065e-015 90 90   XYZ
    dof rx rz
    limits (-90.0 90.0)
           (-45.0 45.0)
  end
  begin
     id 22 
     name lfingers
     direction 1 -4.49107e-011 -2.63492e-026   
     length 0.950679   
     axis 1.6813e-014 90 90   XYZ
    dof rx
    limits (0.0 90.0)
  end
  begin
     id 23
     name lthumb
     direction 0.707107 -6.35048e-011 0.707107   
     length 1.36499   
     axis -90 45 2.85299e-015   XYZ
    dof rx rz
    limits (-45.0 45.0)
           (-45.0 45.0)
  end
  begin
     id 24 
     name rclavicle
     direction -0.996699 0.0642895 -0.0495725   
     length 4.62611  
     axis 0 0 0   XYZ 
    dof ry rz
    limits (-10.0 20.0)
           (-20.0 0.0)
  end
  begin
     id 25 
     name rhumerus
     direction -1 -4.48919e-011 -2.41059e-027  
     length 5.4981   
     axis 180 30 90   XYZ
    dof rx ry rz
    limits (-90.0 60.0)
           (-90.0 90.0)
           (-90.0 90.0)
  end
  begin
     id 26 
     name rradius
     direction -0.999999 0.00118101 -0.000681858   
     length 3.48381   
     axis 180 30 90   XYZ
    dof rx
    limits (-10.0 170.0)
  end
  begin
     id 27 
     name rwrist
     direction -0.999999 0.000321823 -0.00132288   
     length 1.7419   
     axis 4.65056e-015 -90 -90   XYZ
    dof ry
    limits (-180.0 0.0)
  end
  begin
     id 28
     name rhand
     direction -1 -4.49022e-011 -1.31746e-026   
     length 1.34932   
     axis 8.4065e-015 -90 -90   XYZ
    dof rx rz
    limits (-90.0 90.0)
           (-45.0 45.0)
  end
  begin
     id 29
     name rfingers
     direction -1 -4.49178e-011 -2.63492e-026   
     length 1.08785   
     axis 1.6813e-014 -90 -90   XYZ
    dof rx
    limits (0.0 90.0)
  end
  begin
     id 30
     name rthumb
     direction -0.707107 -6.34713e-011 0.707107   
     length 1.56195   
     axis -90 -45 -2.85299e-015   XYZ
    dof rx rz
    limits (-45.0 45.0)
           (-45.0 45.0)
  end
:hierarchy
  begin
    root lhipjoint rhipjoint lowerback
    lhipjoint lfemur
    lfemur ltibia
    ltibia lfoot
    lfoot ltoes
    rhipjoint rfemur
    rfemur rtibia
    rtibia rfoot
    rfoot rtoes
    lowerback upperback
    upperback thorax
    thorax lowerneck lclavicle rclavicle
    lowerneck upperneck
    upperneck head
    lclavicle lhumerus
    lhumerus lradius
    lradius lwrist
    lwrist lhand lthumb
    lhand lfingers
    rclavicle rhumerus
    rhumerus rradius
    rradius rwrist
    rwrist rhand rthumb
    rhand rfingers
  end

#!OML:ASF X:\für Bonn\!DataBase\2005_08_10_Bjorn_Final\c3d\bjorn.ASF
:FULLY-SPECIFIED
:DEGREES
1
root -21.3583 19.3936 -0.0952631 -354.602 -82.3147 -0.637178
lowerback -13.2332 0.180417 -1.92404
upperback 5.21037 0.730545 -1.2727
thorax 13.2245 0.236113 -0.144651
lowerneck -2.96822 -3.20977 4.95352
upperneck 6.83084 -4.36355 -3.53363
head 2.50412 -2.16767 -2.13232
rclavicle -2.10712e-014 1.94809e-014
rhumerus -40.3006 -12.8393 -88.1053
rradius 36.0841
rwrist 4.79296
rhand -3.46816 2.34921
rfingers 7.12502
rthumb 22.2646 -26.3883
lclavicle -2.10712e-014 1.94809e-014
lhumerus -25.1903 3.15456 84.0694
lradius 21.561
lwrist -46.3274
lhand -14.227 -0.839893
lfingers 7.12502
lthumb 11.9103 28.8013
rfemur -8.62803 -13.0861 15.668
rtibia 23.4617
rfoot -13.3694 14.3343
rtoes -0.528131
lfemur -13.4164 17.5832 -17.4267
ltibia 26.3368
lfoot -5.65666 -25.4303
ltoes 8.62131
2
root -21.35 19.3952 -0.0974902 -354.547 -82.425 -0.677735
lowerback -13.1653 0.165654 -1.85769
upperback 5.23731 0.696212 -1.27275
thorax 13.2151 0.225473 -0.19092
lowerneck -3.08521 -3.15177 4.96916
upperneck 6.80268 -4.2872 -3.60093
head 2.51861 -2.13186 -2.15846
rclavicle 9.44227e-015 2.26615e-014
rhumerus -40.8052 -11.2101 -89.0243
rradius 39.2909
rwrist 3.3543
rhand -4.496 2.71036
rfingers 7.12502
rthumb 21.2776 -26.1417
lclavicle 9.44227e-015 2.26615e-014
lhumerus -25.2201 3.40188 83.8975
lradius 21.8327
lwrist -43.9389
lhand -14.2527 -0.59876
lfingers 7.12502
lthumb 11.8855 29.0439
rfemur -8.69901 -13.117 15.6742
rtibia 23.474
rfoot -13.2894 14.4581
rtoes -0.545064
lfemur -13.4359 17.5741 -17.4398
ltibia 26.3168
lfoot -5.73788 -25.298
ltoes 8.42309
3
root -21.3413 19.396 -0.0995529 -354.61 -82.5377 -0.598082
lowerback -13.087 0.158289 -1.79903
upperback 5.25217 0.675076 -1.29201
thorax 13.1853 0.221556 -0.250752
lowerneck -3.14993 -3.11136 4.95372
upperneck 6.7479 -4.23408 -3.61253
head 2.51489 -2.1066 -2.15885
rclavicle 0 -1.27222e-014
rhumerus -41.423 -9.77156 -89.8395
rradius 42.91
rwrist 1.97009
rhand -5.3487 2.69855
rfingers 7.12502
rthumb 20.4583 -26.2436
lclavicle 0 -1.27222e-014
lhumerus -25.3082 3.75296 83.651
lradius 22.1834
lwrist -42.2967
lhand -14.5016 0.044421
lfingers 7.12502
lthumb 11.6454 29.7008
rfemur -8.77093 -13.1351 15.664
rtibia 23.4834
rfoot -13.2205 14.5731
rtoes -0.484245
lfemur -13.4602 17.5487 -17.4683
ltibia 26.3029
lfoot -5.77782 -25.1542
ltoes 8.32398
4
root -21.3333 19.3975 -0.101127 -354.54 -82.6715 -0.653906
lowerback -13.0331 0.150315 -1.74119
upperback 5.27534 0.651553 -1.28781
thorax 13.1797 0.21503 -0.284749
lowerneck -3.2183 -3.06905 4.89029
upperneck 6.7075 -4.17648 -3.61464
head 2.51776 -2.07999 -2.14786
rclavicle -7.95139e-016 -8.34896e-015
rhumerus -42.0548 -8.38977 -90.5475
rradius 46.7954
rwrist 0.608923
rhand -6.34679 2.62284
rfingers 7.12502
rthumb 19.499 -26.4194
lclavicle -7.95139e-016 -8.34896e-015
lhumerus -25.4288 4.27578 83.4032
lradius 22.6103
lwrist -41.3011
lhand -14.7566 0.889635
lfingers 7.12502
lthumb 11.3995 30.5598
rfemur -8.84266 -13.1586 15.6641
rtibia 23.4963
rfoot -13.1277 14.7284
rtoes -0.402087
lfemur -13.4746 17.5448 -17.4778
ltibia 26.2829
lfoot -5.81146 -25.0118
ltoes 8.26492
5
root -21.3237 19.3986 -0.103615 -354.519 -82.7916 -0.661088
lowerback -12.9535 0.139341 -1.70547
upperback 5.28757 0.627415 -1.28551
thorax 13.1455 0.206637 -0.308379
lowerneck -3.27289 -3.0266 4.85103
upperneck 6.65765 -4.11715 -3.65327
head 2.51403 -2.05306 -2.15258
rclavicle -1.0635e-014 7.95139e-015
rhumerus -42.6346 -7.16617 -91.129
rradius 50.7343
rwrist -0.492909
rhand -7.60839 2.97529
rfingers 7.12502
rthumb 18.2856 -26.1852
lclavicle -1.0635e-014 7.95139e-015
lhumerus -25.5827 4.87418 83.1356
lradius 23.0515
lwrist -40.8589
lhand -14.8639 1.54499
lfingers 7.12502
lthumb 11.296 31.2208
rfemur -8.9202 -13.1452 15.672
rtibia 23.5109
rfoot -13.0529 14.82
rtoes -0.336809
lfemur -13.4994 17.5926 -17.4945
ltibia 26.2591
lfoot -5.83905 -24.9225
ltoes 8.10683
6
root -21.3143 19.4005 -0.106232 -354.504 -82.9312 -0.664661
lowerback -12.8627 0.122985 -1.6991
upperback 5.28322 0.598861 -1.26431
thorax 13.0847 0.192957 -0.295391
lowerneck -3.28095 -2.97604 4.765
upperneck 6.60506 -4.04362 -3.67484
head 2.5024 -2.01953 -2.14151
rclavicle -6.26172e-015 9.93923e-015
rhumerus -43.1232 -5.98555 -91.6017
rradius 54.6873
rwrist -1.49476
rhand -8.50914 3.2213
rfingers 7.12502
rthumb 17.4189 -26.0182
lclavicle -6.26172e-015 9.93923e-015
lhumerus -25.7804 5.55197 82.8839
lradius 23.4591
lwrist -40.8358
lhand -14.9806 1.97759
lfingers 7.12502
lthumb 11.1835 31.6595
rfemur -9.00124 -13.1207 15.6787
rtibia 23.5253
rfoot -12.9749 14.9147
rtoes -0.295336
lfemur -13.5112 17.5296 -17.5078
ltibia 26.2333
lfoot -5.906 -24.6969
ltoes 8.00519
7
root -21.3044 19.4024 -0.108662 -354.609 -83.0702 -0.538166
lowerback -12.789 0.112937 -1.69749
upperback 5.27697 0.582579 -1.26425
thorax 13.0324 0.185681 -0.300082
lowerneck -3.25872 -2.93364 4.71174
upperneck 6.54182 -3.98188 -3.6948
head 2.48058 -1.99088 -2.13494
rclavicle -8.44835e-015 -1.19271e-014
rhumerus -43.4452 -4.91254 -92.0015
rradius 58.5676
rwrist -2.52671
rhand -8.82143 3.3018
rfingers 7.12502
rthumb 17.1183 -25.9641
lclavicle -8.44835e-015 -1.19271e-014
lhumerus -25.9455 6.08854 82.6419
lradius 23.7864
lwrist -40.9705
lhand -15.1177 2.3191
lfingers 7.12502
lthumb 11.0513 32.0082
rfemur -9.08903 -13.0563 15.6695
rtibia 23.5419
rfoot -12.9001 14.9822
rtoes -0.163686
lfemur -13.5324 17.4359 -17.5424
ltibia 26.2051
lfoot -5.97772 -24.4584
ltoes 7.84282
8
root -21.2946 19.4035 -0.111285 -354.595 -83.2164 -0.539183
lowerback -12.6906 0.112278 -1.6755
upperback 5.24779 0.575413 -1.27298
thorax 12.9387 0.185259 -0.323542
lowerneck -3.19993 -2.8997 4.65627
upperneck 6.50314 -3.93069 -3.70428
head 2.45989 -1.96699 -2.12435
rclavicle 1.97791e-014 -1.51076e-014
rhumerus -43.7026 -3.96232 -92.3203
rradius 62.3851
rwrist -3.58522
rhand -8.87797 3.41797
rfingers 7.12502
rthumb 17.0639 -25.8526
lclavicle 1.97791e-014 -1.51076e-014
lhumerus -26.1265 6.45635 82.4133
lradius 24.0288
lwrist -41.1405
lhand -15.3465 2.62743
lfingers 7.12502
lthumb 10.8306 32.3282
rfemur -9.17055 -13.0256 15.6765
rtibia 23.559
rfoot -12.8227 15.0804
rtoes -0.107492
lfemur -13.5494 17.4691 -17.559
ltibia 26.1764
lfoot -6.00977 -24.3259
ltoes 7.72617
